<svg width="512" height="512" viewBox="0 0 512 512" fill="none" xmlns="http://www.w3.org/2000/svg">
    <path fill-rule="evenodd" clip-rule="evenodd" d="M131.152 26.4962C69.4185 41.0362 14.6547 53.9369 9.45487 55.1648L0 57.3984L0.151303 256.174L0.301947 454.948L121.548 483.463C188.234 499.147 243.267 511.988 243.845 512C244.844 512.02 244.896 504.132 244.896 353.62V195.22H204.38H163.865V176.382V157.543H204.38H244.896V78.7413C244.896 16.0206 244.743 -0.0487094 244.145 0.000110798C243.733 0.033542 192.886 11.9568 131.152 26.4962ZM287.512 107.397V157.543H328.028H368.543V176.382V195.22H328.028H287.512V325.232V455.243L399.605 455.11L511.698 454.975L511.849 256.113L512 57.2498H399.756H287.512V107.397Z" fill="#EF9410" />
</svg>
    